<mxfile host="Electron" agent="Mozilla/5.0 (Windows NT 10.0; Win64; x64) AppleWebKit/537.36 (KHTML, like Gecko) draw.io/26.2.15 Chrome/134.0.6998.205 Electron/35.2.1 Safari/537.36" version="26.2.15">
  <diagram name="Page-1" id="oSlewENaS0oFDHan6Odl">
    <mxGraphModel dx="812" dy="2304" grid="1" gridSize="10" guides="1" tooltips="1" connect="1" arrows="1" fold="1" page="1" pageScale="1" pageWidth="1100" pageHeight="1700" math="0" shadow="0">
      <root>
        <mxCell id="0" />
        <mxCell id="1" parent="0" />
        <mxCell id="DtxHvdUtzYNoHZTCCuFf-21" style="edgeStyle=orthogonalEdgeStyle;rounded=0;orthogonalLoop=1;jettySize=auto;html=1;" parent="1" source="DtxHvdUtzYNoHZTCCuFf-2" target="DtxHvdUtzYNoHZTCCuFf-3" edge="1">
          <mxGeometry relative="1" as="geometry" />
        </mxCell>
        <mxCell id="DtxHvdUtzYNoHZTCCuFf-2" value="START" style="ellipse;whiteSpace=wrap;html=1;fontSize=20;" parent="1" vertex="1">
          <mxGeometry x="830" y="-1690" width="110" height="60" as="geometry" />
        </mxCell>
        <mxCell id="DtxHvdUtzYNoHZTCCuFf-22" style="edgeStyle=orthogonalEdgeStyle;rounded=0;orthogonalLoop=1;jettySize=auto;html=1;entryX=0.5;entryY=0;entryDx=0;entryDy=0;" parent="1" source="DtxHvdUtzYNoHZTCCuFf-3" target="DtxHvdUtzYNoHZTCCuFf-4" edge="1">
          <mxGeometry relative="1" as="geometry" />
        </mxCell>
        <mxCell id="DtxHvdUtzYNoHZTCCuFf-3" value="&lt;font style=&quot;font-size: 20px;&quot;&gt;1&lt;/font&gt;" style="ellipse;whiteSpace=wrap;html=1;aspect=fixed;" parent="1" vertex="1">
          <mxGeometry x="845" y="-1580" width="80" height="80" as="geometry" />
        </mxCell>
        <mxCell id="DtxHvdUtzYNoHZTCCuFf-23" style="edgeStyle=orthogonalEdgeStyle;rounded=0;orthogonalLoop=1;jettySize=auto;html=1;entryX=0.5;entryY=0;entryDx=0;entryDy=0;" parent="1" source="DtxHvdUtzYNoHZTCCuFf-4" target="DtxHvdUtzYNoHZTCCuFf-5" edge="1">
          <mxGeometry relative="1" as="geometry" />
        </mxCell>
        <mxCell id="DtxHvdUtzYNoHZTCCuFf-4" value="&lt;font style=&quot;font-size: 20px;&quot;&gt;2&lt;/font&gt;" style="ellipse;whiteSpace=wrap;html=1;aspect=fixed;" parent="1" vertex="1">
          <mxGeometry x="845" y="-1450" width="80" height="80" as="geometry" />
        </mxCell>
        <mxCell id="DtxHvdUtzYNoHZTCCuFf-5" value="" style="ellipse;whiteSpace=wrap;html=1;aspect=fixed;" parent="1" vertex="1">
          <mxGeometry x="990" y="-1355" width="80" height="80" as="geometry" />
        </mxCell>
        <mxCell id="DtxHvdUtzYNoHZTCCuFf-24" style="edgeStyle=orthogonalEdgeStyle;rounded=0;orthogonalLoop=1;jettySize=auto;html=1;entryX=1;entryY=0.5;entryDx=0;entryDy=0;" parent="1" target="DtxHvdUtzYNoHZTCCuFf-7" edge="1">
          <mxGeometry relative="1" as="geometry">
            <mxPoint x="990" y="-1315" as="sourcePoint" />
          </mxGeometry>
        </mxCell>
        <mxCell id="DtxHvdUtzYNoHZTCCuFf-25" style="edgeStyle=orthogonalEdgeStyle;rounded=0;orthogonalLoop=1;jettySize=auto;html=1;entryX=1;entryY=0.5;entryDx=0;entryDy=0;exitX=0.5;exitY=1;exitDx=0;exitDy=0;" parent="1" source="DtxHvdUtzYNoHZTCCuFf-5" target="DtxHvdUtzYNoHZTCCuFf-8" edge="1">
          <mxGeometry relative="1" as="geometry">
            <Array as="points">
              <mxPoint x="1030" y="-1180" />
            </Array>
            <mxPoint x="1030" y="-1270" as="sourcePoint" />
          </mxGeometry>
        </mxCell>
        <mxCell id="DtxHvdUtzYNoHZTCCuFf-6" value="&lt;font style=&quot;font-size: 20px;&quot;&gt;3&lt;/font&gt;" style="ellipse;whiteSpace=wrap;html=1;aspect=fixed;" parent="1" vertex="1">
          <mxGeometry x="1000" y="-1345" width="60" height="60" as="geometry" />
        </mxCell>
        <mxCell id="DtxHvdUtzYNoHZTCCuFf-26" style="edgeStyle=orthogonalEdgeStyle;rounded=0;orthogonalLoop=1;jettySize=auto;html=1;entryX=0.5;entryY=0;entryDx=0;entryDy=0;" parent="1" source="DtxHvdUtzYNoHZTCCuFf-7" target="DtxHvdUtzYNoHZTCCuFf-8" edge="1">
          <mxGeometry relative="1" as="geometry" />
        </mxCell>
        <mxCell id="DtxHvdUtzYNoHZTCCuFf-7" value="&lt;font style=&quot;font-size: 20px;&quot;&gt;4&lt;/font&gt;" style="ellipse;whiteSpace=wrap;html=1;aspect=fixed;" parent="1" vertex="1">
          <mxGeometry x="750" y="-1355" width="80" height="80" as="geometry" />
        </mxCell>
        <mxCell id="DtxHvdUtzYNoHZTCCuFf-27" style="edgeStyle=orthogonalEdgeStyle;rounded=0;orthogonalLoop=1;jettySize=auto;html=1;entryX=0.5;entryY=0;entryDx=0;entryDy=0;" parent="1" source="DtxHvdUtzYNoHZTCCuFf-8" target="DtxHvdUtzYNoHZTCCuFf-9" edge="1">
          <mxGeometry relative="1" as="geometry" />
        </mxCell>
        <mxCell id="DtxHvdUtzYNoHZTCCuFf-8" value="&lt;font style=&quot;font-size: 20px;&quot;&gt;5&lt;/font&gt;" style="ellipse;whiteSpace=wrap;html=1;aspect=fixed;" parent="1" vertex="1">
          <mxGeometry x="750" y="-1220" width="80" height="80" as="geometry" />
        </mxCell>
        <mxCell id="DtxHvdUtzYNoHZTCCuFf-9" value="" style="ellipse;whiteSpace=wrap;html=1;aspect=fixed;" parent="1" vertex="1">
          <mxGeometry x="750" y="-1070" width="80" height="80" as="geometry" />
        </mxCell>
        <mxCell id="DtxHvdUtzYNoHZTCCuFf-29" style="edgeStyle=orthogonalEdgeStyle;rounded=0;orthogonalLoop=1;jettySize=auto;html=1;" parent="1" target="DtxHvdUtzYNoHZTCCuFf-11" edge="1">
          <mxGeometry relative="1" as="geometry">
            <mxPoint x="750" y="-1030" as="sourcePoint" />
          </mxGeometry>
        </mxCell>
        <mxCell id="DtxHvdUtzYNoHZTCCuFf-47" style="edgeStyle=orthogonalEdgeStyle;rounded=0;orthogonalLoop=1;jettySize=auto;html=1;entryX=0.5;entryY=0;entryDx=0;entryDy=0;" parent="1" target="DtxHvdUtzYNoHZTCCuFf-12" edge="1">
          <mxGeometry relative="1" as="geometry">
            <mxPoint x="790" y="-990" as="sourcePoint" />
          </mxGeometry>
        </mxCell>
        <mxCell id="DtxHvdUtzYNoHZTCCuFf-10" value="&lt;font style=&quot;font-size: 20px;&quot;&gt;6&lt;/font&gt;" style="ellipse;whiteSpace=wrap;html=1;aspect=fixed;" parent="1" vertex="1">
          <mxGeometry x="760" y="-1060" width="60" height="60" as="geometry" />
        </mxCell>
        <mxCell id="DtxHvdUtzYNoHZTCCuFf-11" value="&lt;font style=&quot;font-size: 20px;&quot;&gt;7&lt;/font&gt;" style="ellipse;whiteSpace=wrap;html=1;aspect=fixed;" parent="1" vertex="1">
          <mxGeometry x="620" y="-1070" width="80" height="80" as="geometry" />
        </mxCell>
        <mxCell id="DtxHvdUtzYNoHZTCCuFf-12" value="" style="ellipse;whiteSpace=wrap;html=1;aspect=fixed;" parent="1" vertex="1">
          <mxGeometry x="750" y="-910" width="80" height="80" as="geometry" />
        </mxCell>
        <mxCell id="DtxHvdUtzYNoHZTCCuFf-32" style="edgeStyle=orthogonalEdgeStyle;rounded=0;orthogonalLoop=1;jettySize=auto;html=1;entryX=0;entryY=0.5;entryDx=0;entryDy=0;" parent="1" target="DtxHvdUtzYNoHZTCCuFf-16" edge="1">
          <mxGeometry relative="1" as="geometry">
            <mxPoint x="830" y="-870" as="sourcePoint" />
          </mxGeometry>
        </mxCell>
        <mxCell id="DtxHvdUtzYNoHZTCCuFf-35" style="edgeStyle=orthogonalEdgeStyle;rounded=0;orthogonalLoop=1;jettySize=auto;html=1;entryX=0.5;entryY=0;entryDx=0;entryDy=0;" parent="1" target="DtxHvdUtzYNoHZTCCuFf-14" edge="1">
          <mxGeometry relative="1" as="geometry">
            <mxPoint x="790" y="-830" as="sourcePoint" />
          </mxGeometry>
        </mxCell>
        <mxCell id="DtxHvdUtzYNoHZTCCuFf-13" value="&lt;font style=&quot;font-size: 20px;&quot;&gt;8&lt;/font&gt;" style="ellipse;whiteSpace=wrap;html=1;aspect=fixed;" parent="1" vertex="1">
          <mxGeometry x="760" y="-900" width="60" height="60" as="geometry" />
        </mxCell>
        <mxCell id="DtxHvdUtzYNoHZTCCuFf-39" style="edgeStyle=orthogonalEdgeStyle;rounded=0;orthogonalLoop=1;jettySize=auto;html=1;entryX=0;entryY=0.5;entryDx=0;entryDy=0;" parent="1" source="DtxHvdUtzYNoHZTCCuFf-14" target="DtxHvdUtzYNoHZTCCuFf-20" edge="1">
          <mxGeometry relative="1" as="geometry">
            <Array as="points">
              <mxPoint x="660" y="-710" />
              <mxPoint x="660" y="-390" />
            </Array>
          </mxGeometry>
        </mxCell>
        <mxCell id="DtxHvdUtzYNoHZTCCuFf-14" value="" style="ellipse;whiteSpace=wrap;html=1;aspect=fixed;" parent="1" vertex="1">
          <mxGeometry x="750" y="-750" width="80" height="80" as="geometry" />
        </mxCell>
        <mxCell id="DtxHvdUtzYNoHZTCCuFf-37" style="edgeStyle=orthogonalEdgeStyle;rounded=0;orthogonalLoop=1;jettySize=auto;html=1;" parent="1" target="DtxHvdUtzYNoHZTCCuFf-19" edge="1">
          <mxGeometry relative="1" as="geometry">
            <mxPoint x="790" y="-670" as="sourcePoint" />
          </mxGeometry>
        </mxCell>
        <mxCell id="DtxHvdUtzYNoHZTCCuFf-15" value="&lt;font style=&quot;font-size: 20px;&quot;&gt;12&lt;/font&gt;" style="ellipse;whiteSpace=wrap;html=1;aspect=fixed;" parent="1" vertex="1">
          <mxGeometry x="760" y="-740" width="60" height="60" as="geometry" />
        </mxCell>
        <mxCell id="DtxHvdUtzYNoHZTCCuFf-33" style="edgeStyle=orthogonalEdgeStyle;rounded=0;orthogonalLoop=1;jettySize=auto;html=1;" parent="1" source="DtxHvdUtzYNoHZTCCuFf-16" target="DtxHvdUtzYNoHZTCCuFf-17" edge="1">
          <mxGeometry relative="1" as="geometry" />
        </mxCell>
        <mxCell id="DtxHvdUtzYNoHZTCCuFf-16" value="&lt;font style=&quot;font-size: 20px;&quot;&gt;9&lt;/font&gt;" style="ellipse;whiteSpace=wrap;html=1;aspect=fixed;" parent="1" vertex="1">
          <mxGeometry x="990" y="-910" width="80" height="80" as="geometry" />
        </mxCell>
        <mxCell id="DtxHvdUtzYNoHZTCCuFf-34" style="edgeStyle=orthogonalEdgeStyle;rounded=0;orthogonalLoop=1;jettySize=auto;html=1;" parent="1" source="DtxHvdUtzYNoHZTCCuFf-17" target="DtxHvdUtzYNoHZTCCuFf-18" edge="1">
          <mxGeometry relative="1" as="geometry" />
        </mxCell>
        <mxCell id="DtxHvdUtzYNoHZTCCuFf-17" value="&lt;font style=&quot;font-size: 20px;&quot;&gt;10&lt;/font&gt;" style="ellipse;whiteSpace=wrap;html=1;aspect=fixed;" parent="1" vertex="1">
          <mxGeometry x="990" y="-1030" width="80" height="80" as="geometry" />
        </mxCell>
        <mxCell id="DtxHvdUtzYNoHZTCCuFf-36" style="edgeStyle=orthogonalEdgeStyle;rounded=0;orthogonalLoop=1;jettySize=auto;html=1;entryX=1;entryY=0.5;entryDx=0;entryDy=0;" parent="1" source="DtxHvdUtzYNoHZTCCuFf-18" target="DtxHvdUtzYNoHZTCCuFf-14" edge="1">
          <mxGeometry relative="1" as="geometry">
            <Array as="points">
              <mxPoint x="1100" y="-1120" />
              <mxPoint x="1100" y="-710" />
            </Array>
          </mxGeometry>
        </mxCell>
        <mxCell id="DtxHvdUtzYNoHZTCCuFf-18" value="&lt;font style=&quot;font-size: 20px;&quot;&gt;11&lt;/font&gt;" style="ellipse;whiteSpace=wrap;html=1;aspect=fixed;" parent="1" vertex="1">
          <mxGeometry x="990" y="-1160" width="80" height="80" as="geometry" />
        </mxCell>
        <mxCell id="DtxHvdUtzYNoHZTCCuFf-38" style="edgeStyle=orthogonalEdgeStyle;rounded=0;orthogonalLoop=1;jettySize=auto;html=1;entryX=0.5;entryY=0;entryDx=0;entryDy=0;" parent="1" source="DtxHvdUtzYNoHZTCCuFf-19" target="DtxHvdUtzYNoHZTCCuFf-20" edge="1">
          <mxGeometry relative="1" as="geometry" />
        </mxCell>
        <mxCell id="DtxHvdUtzYNoHZTCCuFf-19" value="&lt;font style=&quot;font-size: 20px;&quot;&gt;13&lt;/font&gt;" style="ellipse;whiteSpace=wrap;html=1;aspect=fixed;" parent="1" vertex="1">
          <mxGeometry x="750" y="-590" width="80" height="80" as="geometry" />
        </mxCell>
        <mxCell id="DtxHvdUtzYNoHZTCCuFf-20" value="FINISH" style="ellipse;whiteSpace=wrap;html=1;fontSize=20;" parent="1" vertex="1">
          <mxGeometry x="735" y="-420" width="110" height="60" as="geometry" />
        </mxCell>
        <mxCell id="DtxHvdUtzYNoHZTCCuFf-30" style="edgeStyle=orthogonalEdgeStyle;rounded=0;orthogonalLoop=1;jettySize=auto;html=1;" parent="1" source="DtxHvdUtzYNoHZTCCuFf-11" edge="1">
          <mxGeometry relative="1" as="geometry">
            <mxPoint x="750" y="-870" as="targetPoint" />
            <Array as="points">
              <mxPoint x="660" y="-870" />
              <mxPoint x="750" y="-870" />
            </Array>
          </mxGeometry>
        </mxCell>
        <mxCell id="DtxHvdUtzYNoHZTCCuFf-40" value="&lt;font style=&quot;font-size: 20px;&quot;&gt;R1&lt;/font&gt;" style="text;html=1;align=center;verticalAlign=middle;whiteSpace=wrap;rounded=0;" parent="1" vertex="1">
          <mxGeometry x="710" y="-1480" width="60" height="30" as="geometry" />
        </mxCell>
        <mxCell id="DtxHvdUtzYNoHZTCCuFf-41" value="&lt;font style=&quot;font-size: 20px;&quot;&gt;R2&lt;/font&gt;" style="text;html=1;align=center;verticalAlign=middle;whiteSpace=wrap;rounded=0;" parent="1" vertex="1">
          <mxGeometry x="890" y="-1250" width="60" height="30" as="geometry" />
        </mxCell>
        <mxCell id="DtxHvdUtzYNoHZTCCuFf-42" value="&lt;font style=&quot;font-size: 20px;&quot;&gt;R3&lt;/font&gt;" style="text;html=1;align=center;verticalAlign=middle;whiteSpace=wrap;rounded=0;" parent="1" vertex="1">
          <mxGeometry x="680" y="-950" width="60" height="30" as="geometry" />
        </mxCell>
        <mxCell id="DtxHvdUtzYNoHZTCCuFf-45" value="&lt;font style=&quot;font-size: 20px;&quot;&gt;R4&lt;/font&gt;" style="text;html=1;align=center;verticalAlign=middle;whiteSpace=wrap;rounded=0;" parent="1" vertex="1">
          <mxGeometry x="920" y="-800" width="60" height="30" as="geometry" />
        </mxCell>
        <mxCell id="DtxHvdUtzYNoHZTCCuFf-46" value="&lt;font style=&quot;font-size: 20px;&quot;&gt;R5&lt;/font&gt;" style="text;html=1;align=center;verticalAlign=middle;whiteSpace=wrap;rounded=0;" parent="1" vertex="1">
          <mxGeometry x="680" y="-550" width="60" height="30" as="geometry" />
        </mxCell>
      </root>
    </mxGraphModel>
  </diagram>
</mxfile>
